<svg version="1.1" id="Layer_1" xmlns="http://www.w3.org/2000/svg" xmlns:xlink="http://www.w3.org/1999/xlink" x="0px" y="0px"
	 width="100%" viewBox="0 0 1080 1920" enable-background="new 0 0 1080 1920" xml:space="preserve">
<path fill="#FFFFFF" opacity="1.000000" stroke="none" 
	d="
M1081.000000,170.000000 
	C1081.000000,724.362732 1081.000000,1278.725464 1080.531860,1833.569580 
	C1073.733521,1834.010864 1067.387329,1834.247192 1061.076172,1833.879639 
	C1040.710571,1832.693604 1020.353882,1831.344116 1000.002380,1829.933594 
	C991.905945,1829.372437 983.821838,1828.582764 975.750061,1827.727661 
	C961.591675,1826.227783 947.439941,1824.659058 933.298767,1823.004761 
	C918.175293,1821.235718 903.054565,1819.430542 887.956726,1817.457642 
	C877.791199,1816.129395 867.662720,1814.513184 857.526062,1812.970215 
	C846.232605,1811.250977 834.933960,1809.558716 823.664795,1807.690308 
	C810.944519,1805.581177 798.287170,1803.076660 785.543823,1801.126709 
	C767.720398,1798.399170 749.841003,1796.038208 731.989014,1793.496338 
	C721.829041,1792.049805 711.707947,1790.263184 701.512817,1789.145874 
	C683.561401,1787.178711 665.565857,1785.615356 647.590393,1783.867065 
	C627.651489,1781.927979 607.728210,1779.812134 587.771790,1778.075195 
	C573.395447,1776.823730 558.987244,1775.828857 544.573059,1775.148438 
	C525.151367,1774.231689 505.706818,1773.080811 486.278015,1773.180664 
	C446.016846,1773.387817 405.757172,1774.238525 365.502197,1775.078369 
	C353.569794,1775.327271 341.618256,1776.048828 329.740448,1777.215454 
	C309.636414,1779.189819 289.537415,1781.346558 269.522583,1784.062500 
	C247.231003,1787.087524 224.890778,1790.090698 202.840027,1794.458008 
	C181.281250,1798.727905 159.876053,1804.061401 138.744858,1810.119141 
	C118.743210,1815.852783 99.023804,1822.692505 79.471268,1829.841431 
	C53.668526,1839.275635 29.403095,1851.884644 6.755975,1867.530762 
	C5.072274,1868.693970 2.929380,1869.192383 0.999993,1870.000000 
	C1.000000,1298.970581 1.000000,727.941284 1.370723,156.232544 
	C20.081879,151.916031 38.347160,147.828705 56.781052,144.751389 
	C81.944923,140.550552 107.167450,136.528000 132.495773,133.538300 
	C154.050507,130.994003 175.764191,129.396667 197.454025,128.479126 
	C243.152527,126.545952 288.869385,126.703445 334.452118,131.067886 
	C353.242798,132.867050 371.988800,135.320114 390.661346,138.104553 
	C404.893616,140.226883 419.062958,142.963013 433.104156,146.120422 
	C446.943054,149.232315 460.781342,152.610947 474.267548,156.964142 
	C493.777405,163.261658 512.968018,170.547882 532.301208,177.394135 
	C534.058655,178.016495 535.862915,178.506897 537.645386,179.058578 
	C537.578796,177.529999 537.145630,176.689957 536.462341,176.195801 
	C528.166565,170.196945 519.891479,164.166779 511.499329,158.304688 
	C493.069580,145.431137 472.702301,136.181564 451.799347,128.433594 
	C429.497375,120.167053 406.809509,112.808861 383.960449,106.192673 
	C365.239685,100.771896 346.157379,96.386971 327.012390,92.701012 
	C305.548065,88.568520 283.901306,85.192184 262.209625,82.481575 
	C235.727463,79.172348 209.148132,76.510513 182.549866,74.303497 
	C162.700775,72.656502 142.755859,71.370575 122.852005,71.347878 
	C85.113853,71.304840 47.374821,72.304520 9.635175,72.796196 
	C6.760728,72.833649 3.878572,72.279282 1.000000,72.000000 
	C1.000000,55.303967 1.000000,38.607933 1.370332,21.345633 
	C16.055141,17.425390 30.313913,13.805059 44.700558,10.796131 
	C57.769466,8.062802 70.989944,6.060163 84.111198,3.564959 
	C86.162537,3.174865 88.041389,1.877719 90.000000,0.999999 
	C180.696030,1.000000 271.392059,1.000000 362.773163,1.300684 
	C364.856415,2.060739 366.223022,2.735951 367.657715,2.945676 
	C380.261078,4.788077 392.955688,6.119376 405.469910,8.432031 
	C424.176605,11.889076 442.817810,15.757770 461.377533,19.937023 
	C479.934753,24.115705 498.452637,28.539982 516.811462,33.508007 
	C533.895874,38.131157 550.796631,43.457878 567.687500,48.763729 
	C581.551208,53.118683 595.354309,57.692783 609.050781,62.546238 
	C622.941589,67.468529 636.710754,72.744118 650.455200,78.066414 
	C662.773682,82.836578 675.005798,87.832352 687.239929,92.817123 
	C700.407715,98.182297 713.441467,103.888672 726.702820,109.008232 
	C740.573120,114.362892 754.574219,119.402824 768.649719,124.193794 
	C780.221863,128.132645 791.953125,131.618881 803.676270,135.095047 
	C813.845154,138.110352 824.068115,140.958755 834.328735,143.645813 
	C845.529663,146.579132 856.765869,149.397949 868.052917,151.976593 
	C878.203308,154.295547 888.415344,156.372604 898.651672,158.279968 
	C909.703552,160.339294 920.781982,162.312531 931.910645,163.886673 
	C941.911621,165.301315 951.984924,166.247162 962.046814,167.178848 
	C976.902649,168.554413 991.763916,170.584061 1006.645752,170.805939 
	C1031.421021,171.175354 1056.214355,170.332413 1081.000000,170.000000 
z"/>
<path fill="#A9F4A2" opacity="1.000000" stroke="none" 
	d="
M0.999993,1870.375000 
	C2.929380,1869.192383 5.072274,1868.693970 6.755975,1867.530762 
	C29.403095,1851.884644 53.668526,1839.275635 79.471268,1829.841431 
	C99.023804,1822.692505 118.743210,1815.852783 138.744858,1810.119141 
	C159.876053,1804.061401 181.281250,1798.727905 202.840027,1794.458008 
	C224.890778,1790.090698 247.231003,1787.087524 269.522583,1784.062500 
	C289.537415,1781.346558 309.636414,1779.189819 329.740448,1777.215454 
	C341.618256,1776.048828 353.569794,1775.327271 365.502197,1775.078369 
	C405.757172,1774.238525 446.016846,1773.387817 486.278015,1773.180664 
	C505.706818,1773.080811 525.151367,1774.231689 544.573059,1775.148438 
	C558.987244,1775.828857 573.395447,1776.823730 587.771790,1778.075195 
	C607.728210,1779.812134 627.651489,1781.927979 647.590393,1783.867065 
	C665.565857,1785.615356 683.561401,1787.178711 701.512817,1789.145874 
	C711.707947,1790.263184 721.829041,1792.049805 731.989014,1793.496338 
	C749.841003,1796.038208 767.720398,1798.399170 785.543823,1801.126709 
	C798.287170,1803.076660 810.944519,1805.581177 823.664795,1807.690308 
	C834.933960,1809.558716 846.232605,1811.250977 857.526062,1812.970215 
	C867.662720,1814.513184 877.791199,1816.129395 887.956726,1817.457642 
	C903.054565,1819.430542 918.175293,1821.235718 933.298767,1823.004761 
	C947.439941,1824.659058 961.591675,1826.227783 975.750061,1827.727661 
	C983.821838,1828.582764 991.905945,1829.372437 1000.002380,1829.933594 
	C1020.353882,1831.344116 1040.710571,1832.693604 1061.076172,1833.879639 
	C1067.387329,1834.247192 1073.733521,1834.010864 1080.531860,1834.025391 
	C1081.000000,1862.971313 1081.000000,1891.942749 1081.000000,1921.000000 
	C962.645813,1921.000000 844.291565,1921.000000 725.316650,1920.678955 
	C712.062134,1915.046997 699.655762,1909.087036 686.746033,1904.563599 
	C661.791260,1895.819946 636.639771,1887.607788 611.403137,1879.707886 
	C592.449707,1873.774780 573.378418,1868.093750 554.100342,1863.354980 
	C531.769897,1857.865845 509.194122,1853.342041 486.651520,1848.759766 
	C470.774841,1845.532593 454.844574,1842.424316 438.813232,1840.140259 
	C420.621460,1837.548706 402.320648,1835.589233 384.012054,1833.984863 
	C361.386505,1832.002441 338.725067,1829.785034 316.041718,1829.247070 
	C274.651611,1828.265503 233.231369,1828.305176 191.977448,1832.937134 
	C178.643585,1834.434204 165.191071,1835.165649 151.974258,1837.346680 
	C131.903442,1840.658691 111.809944,1844.186157 92.058823,1848.990112 
	C69.253860,1854.537109 46.803905,1861.547363 24.231892,1868.034058 
	C23.317572,1868.296875 22.732117,1869.704102 21.679443,1870.866211 
	C14.576950,1871.769409 7.788470,1872.384644 0.999995,1873.000000 
	C1.000000,1872.250000 1.000000,1871.500000 0.999993,1870.375000 
z"/>
<path fill="#A8F4A1" opacity="1.000000" stroke="none" 
	d="
M1081.000000,169.531342 
	C1056.214355,170.332413 1031.421021,171.175354 1006.645752,170.805939 
	C991.763916,170.584061 976.902649,168.554413 962.046814,167.178848 
	C951.984924,166.247162 941.911621,165.301315 931.910645,163.886673 
	C920.781982,162.312531 909.703552,160.339294 898.651672,158.279968 
	C888.415344,156.372604 878.203308,154.295547 868.052917,151.976593 
	C856.765869,149.397949 845.529663,146.579132 834.328735,143.645813 
	C824.068115,140.958755 813.845154,138.110352 803.676270,135.095047 
	C791.953125,131.618881 780.221863,128.132645 768.649719,124.193794 
	C754.574219,119.402824 740.573120,114.362892 726.702820,109.008232 
	C713.441467,103.888672 700.407715,98.182297 687.239929,92.817123 
	C675.005798,87.832352 662.773682,82.836578 650.455200,78.066414 
	C636.710754,72.744118 622.941589,67.468529 609.050781,62.546238 
	C595.354309,57.692783 581.551208,53.118683 567.687500,48.763729 
	C550.796631,43.457878 533.895874,38.131157 516.811462,33.508007 
	C498.452637,28.539982 479.934753,24.115705 461.377533,19.937023 
	C442.817810,15.757770 424.176605,11.889076 405.469910,8.432031 
	C392.955688,6.119376 380.261078,4.788077 367.657715,2.945676 
	C366.223022,2.735951 364.856415,2.060739 363.229126,1.300684 
	C602.215271,1.000000 841.430603,1.000000 1081.000000,1.000000 
	C1081.000000,57.020397 1081.000000,113.041542 1081.000000,169.531342 
z"/>
<path fill="#FEFFFE" opacity="1.000000" stroke="none" 
	d="
M21.993467,1870.578125 
	C22.732117,1869.704102 23.317572,1868.296875 24.231892,1868.034058 
	C46.803905,1861.547363 69.253860,1854.537109 92.058823,1848.990112 
	C111.809944,1844.186157 131.903442,1840.658691 151.974258,1837.346680 
	C165.191071,1835.165649 178.643585,1834.434204 191.977448,1832.937134 
	C233.231369,1828.305176 274.651611,1828.265503 316.041718,1829.247070 
	C338.725067,1829.785034 361.386505,1832.002441 384.012054,1833.984863 
	C402.320648,1835.589233 420.621460,1837.548706 438.813232,1840.140259 
	C454.844574,1842.424316 470.774841,1845.532593 486.651520,1848.759766 
	C509.194122,1853.342041 531.769897,1857.865845 554.100342,1863.354980 
	C573.378418,1868.093750 592.449707,1873.774780 611.403137,1879.707886 
	C636.639771,1887.607788 661.791260,1895.819946 686.746033,1904.563599 
	C699.655762,1909.087036 712.062134,1915.046997 724.847961,1920.678955 
	C654.312439,1921.000000 583.624878,1921.000000 512.417725,1920.637329 
	C508.300568,1918.850220 504.702942,1917.425781 500.755066,1915.976807 
	C499.955078,1915.824219 499.505341,1915.696167 499.017914,1915.271362 
	C497.686676,1914.650024 496.393097,1914.325439 494.748535,1913.971924 
	C493.972473,1913.753540 493.547363,1913.564209 493.056763,1913.083618 
	C491.697083,1912.491943 490.402954,1912.191528 488.768127,1911.826904 
	C487.989685,1911.631958 487.551910,1911.501343 487.004761,1911.068848 
	C482.315796,1909.383179 477.736206,1907.999512 472.807800,1906.655273 
	C472.010773,1906.586792 471.562531,1906.478882 470.999573,1906.063721 
	C465.960114,1904.504883 461.035370,1903.253418 455.758911,1901.977417 
	C454.955505,1901.824219 454.503815,1901.695679 453.987122,1901.252808 
	C452.000946,1900.497559 450.079773,1900.056641 447.809509,1899.655273 
	C447.011749,1899.586914 446.563110,1899.479004 446.002380,1899.068359 
	C442.632629,1898.141602 439.374969,1897.517578 435.773804,1896.833252 
	C434.971344,1896.704468 434.512390,1896.635986 433.978394,1896.226929 
	C431.819580,1895.451172 429.735870,1895.016113 427.305420,1894.597168 
	C426.280273,1894.504883 425.601837,1894.396484 424.802521,1893.963745 
	C422.839691,1893.298096 420.997742,1892.956665 418.806458,1892.655029 
	C418.008392,1892.586304 417.559662,1892.477905 416.979034,1892.062012 
	C413.092590,1891.144531 409.338043,1890.534546 405.250397,1889.861084 
	C404.244873,1889.723389 403.572388,1889.649292 402.816101,1889.212402 
	C400.541718,1888.438599 398.351196,1888.027588 395.753387,1887.665649 
	C394.267517,1887.599121 393.188904,1887.483521 391.989014,1887.057251 
	C387.618073,1886.129028 383.368347,1885.511475 378.774750,1884.833252 
	C377.971344,1884.704468 377.511841,1884.636108 376.976013,1884.234863 
	C373.987671,1883.473755 371.075684,1883.045532 367.755066,1882.667236 
	C366.267181,1882.600586 365.187897,1882.483887 363.977905,1882.059326 
	C360.950684,1881.372925 358.054169,1880.994141 354.785370,1880.653564 
	C353.937897,1880.568359 353.462738,1880.445190 352.759155,1880.073975 
	C346.725281,1879.218140 340.919769,1878.610352 334.691010,1877.969971 
	C332.863281,1877.806396 331.458862,1877.675049 329.958801,1877.203613 
	C325.963043,1876.447876 322.062836,1876.032227 317.739197,1875.665527 
	C315.924744,1875.525024 314.533752,1875.335815 312.938232,1874.874268 
	C310.832703,1874.144409 308.946991,1873.385010 307.027771,1873.287842 
	C302.065002,1873.036865 297.087524,1873.078003 291.679749,1873.001221 
	C289.512115,1872.855835 287.780670,1872.711670 285.945129,1872.214600 
	C279.779449,1871.434448 273.717773,1871.006958 267.264496,1870.597168 
	C264.284271,1870.532227 261.695709,1870.449463 258.961121,1870.048584 
	C251.930389,1869.359009 245.045654,1868.987671 237.724472,1868.685059 
	C234.164185,1868.548584 231.040329,1868.343262 227.681671,1867.829590 
	C224.670273,1867.681641 221.893661,1867.841919 218.665909,1868.025269 
	C216.118317,1867.960693 214.021881,1867.873047 211.726898,1867.462402 
	C210.462463,1866.788452 209.405563,1866.164185 208.329224,1866.128662 
	C196.619812,1865.742432 184.905960,1865.139160 173.195999,1865.191772 
	C146.501358,1865.311646 119.807533,1865.723877 93.115593,1866.155273 
	C90.768242,1866.193115 88.437263,1867.244141 85.669182,1867.895264 
	C83.790649,1867.929199 82.341614,1867.892456 80.589417,1867.597900 
	C74.821167,1867.683838 69.356079,1868.027466 63.491737,1868.517944 
	C61.673302,1868.648682 60.254128,1868.632690 58.542191,1868.345459 
	C53.323246,1868.082764 48.371735,1867.789795 43.479382,1868.200928 
	C39.927624,1868.499268 36.454140,1869.729126 32.544853,1870.595703 
	C28.760456,1870.624268 25.376966,1870.601196 21.993467,1870.578125 
z"/>
<path fill="#187651" opacity="1.000000" stroke="none" 
	d="
M1.000000,72.468658 
	C3.878572,72.279282 6.760728,72.833649 9.635175,72.796196 
	C47.374821,72.304520 85.113853,71.304840 122.852005,71.347878 
	C142.755859,71.370575 162.700775,72.656502 182.549866,74.303497 
	C209.148132,76.510513 235.727463,79.172348 262.209625,82.481575 
	C283.901306,85.192184 305.548065,88.568520 327.012390,92.701012 
	C346.157379,96.386971 365.239685,100.771896 383.960449,106.192673 
	C406.809509,112.808861 429.497375,120.167053 451.799347,128.433594 
	C472.702301,136.181564 493.069580,145.431137 511.499329,158.304688 
	C519.891479,164.166779 528.166565,170.196945 536.462341,176.195801 
	C537.145630,176.689957 537.578796,177.529999 537.645386,179.058578 
	C535.862915,178.506897 534.058655,178.016495 532.301208,177.394135 
	C512.968018,170.547882 493.777405,163.261658 474.267548,156.964142 
	C460.781342,152.610947 446.943054,149.232315 433.104156,146.120422 
	C419.062958,142.963013 404.893616,140.226883 390.661346,138.104553 
	C371.988800,135.320114 353.242798,132.867050 334.452118,131.067886 
	C288.869385,126.703445 243.152527,126.545952 197.454025,128.479126 
	C175.764191,129.396667 154.050507,130.994003 132.495773,133.538300 
	C107.167450,136.528000 81.944923,140.550552 56.781052,144.751389 
	C38.347160,147.828705 20.081879,151.916031 1.370723,155.776581 
	C1.000000,128.312439 1.000000,100.624878 1.000000,72.468658 
z"/>
<path fill="#14744E" opacity="1.000000" stroke="none" 
	d="
M21.679455,1870.866211 
	C25.376966,1870.601196 28.760456,1870.624268 32.977650,1870.763672 
	C41.364326,1870.549316 48.919239,1870.254150 56.467411,1869.837280 
	C57.276585,1869.792603 58.046696,1869.040527 58.834938,1868.616577 
	C60.254128,1868.632690 61.673302,1868.648682 63.922844,1868.723877 
	C70.133003,1868.473877 75.512794,1868.164673 80.892586,1867.855591 
	C82.341614,1867.892456 83.790649,1867.929199 86.094376,1868.077393 
	C110.200356,1867.837036 133.451263,1867.456787 156.703171,1867.152344 
	C163.185989,1867.067383 169.672241,1867.168945 176.156052,1867.251465 
	C188.079514,1867.403442 200.002335,1867.604736 211.925430,1867.785400 
	C214.021881,1867.873047 216.118317,1867.960693 218.927155,1868.295166 
	C222.398514,1868.407227 225.157486,1868.272583 227.916473,1868.137939 
	C231.040329,1868.343262 234.164185,1868.548584 237.878448,1869.075684 
	C245.348282,1869.720459 252.227707,1870.043579 259.107117,1870.366821 
	C261.695709,1870.449463 264.284271,1870.532227 267.464844,1870.914429 
	C274.054291,1871.665161 280.051727,1872.116333 286.049194,1872.567505 
	C287.780670,1872.711670 289.512115,1872.855835 291.935730,1873.284912 
	C299.466156,1874.095581 306.304474,1874.621216 313.142761,1875.146729 
	C314.533752,1875.335815 315.924744,1875.525024 317.876160,1876.039185 
	C322.309204,1876.757324 326.181824,1877.150635 330.054413,1877.543823 
	C331.458862,1877.675049 332.863281,1877.806396 334.929840,1878.260986 
	C341.390503,1879.163574 347.189026,1879.742798 352.987579,1880.322021 
	C353.462738,1880.445190 353.937897,1880.568359 354.897491,1881.028320 
	C358.290833,1881.698975 361.199707,1882.033081 364.108612,1882.367188 
	C365.187897,1882.483887 366.267181,1882.600586 367.871460,1883.037109 
	C371.281738,1883.760498 374.167053,1884.164185 377.052338,1884.567749 
	C377.511841,1884.636108 377.971344,1884.704468 378.982910,1885.142822 
	C383.726715,1886.131226 387.918488,1886.749512 392.110291,1887.367798 
	C393.188904,1887.483521 394.267517,1887.599121 395.826538,1888.020996 
	C398.504578,1888.743164 400.702240,1889.159180 402.899933,1889.575195 
	C403.572388,1889.649292 404.244873,1889.723389 405.490967,1890.093872 
	C409.746674,1891.050049 413.428802,1891.709839 417.110901,1892.369629 
	C417.559662,1892.477905 418.008392,1892.586304 418.875366,1892.997192 
	C421.170166,1893.629272 423.046783,1893.958618 424.923370,1894.288086 
	C425.601837,1894.396484 426.280273,1894.504883 427.466919,1894.895874 
	C430.001221,1895.641479 432.027313,1896.104614 434.053436,1896.567627 
	C434.512390,1896.635986 434.971344,1896.704468 435.965271,1897.136963 
	C439.704987,1898.124390 442.909760,1898.747681 446.114502,1899.371094 
	C446.563110,1899.479004 447.011749,1899.586914 447.904846,1900.013916 
	C450.250275,1900.744385 452.151184,1901.155762 454.052124,1901.567139 
	C454.503815,1901.695679 454.955505,1901.824219 455.964081,1902.261230 
	C461.385437,1903.836792 466.249878,1905.103882 471.114319,1906.370972 
	C471.562531,1906.478882 472.010773,1906.586792 472.897522,1907.017090 
	C477.928711,1908.683350 482.521393,1910.026978 487.114105,1911.370605 
	C487.551910,1911.501343 487.989685,1911.631958 488.902405,1912.137939 
	C490.625610,1912.800415 491.873932,1913.087646 493.122253,1913.374878 
	C493.547363,1913.564209 493.972473,1913.753540 494.883850,1914.290527 
	C496.598572,1914.948120 497.827087,1915.258057 499.055603,1915.567993 
	C499.505341,1915.696167 499.955078,1915.824219 500.929047,1916.263916 
	C503.635559,1918.050293 505.817810,1919.525024 508.000031,1921.000000 
	C339.000000,1921.000000 169.999985,1921.000000 1.000000,1921.000000 
	C1.000000,1905.245850 1.000000,1889.591553 0.999995,1873.468506 
	C7.788470,1872.384644 14.576950,1871.769409 21.679455,1870.866211 
z"/>
<path fill="#ADF5A6" opacity="1.000000" stroke="none" 
	d="
M89.531342,0.999999 
	C88.041389,1.877719 86.162537,3.174865 84.111198,3.564959 
	C70.989944,6.060163 57.769466,8.062802 44.700558,10.796131 
	C30.313913,13.805059 16.055141,17.425390 1.370332,20.889683 
	C1.000000,14.360205 1.000000,7.720408 1.000000,1.000000 
	C30.354183,1.000000 59.708431,1.000000 89.531342,0.999999 
z"/>
<path fill="#A9F4A2" opacity="1.000000" stroke="none" 
	d="
M508.400024,1921.000000 
	C505.817810,1919.525024 503.635559,1918.050293 501.279297,1916.288330 
	C504.702942,1917.425781 508.300568,1918.850220 511.949097,1920.637329 
	C510.933319,1921.000000 509.866669,1921.000000 508.400024,1921.000000 
z"/>
<path fill="#A9F4A2" opacity="1.000000" stroke="none" 
	d="
M211.726898,1867.462402 
	C200.002335,1867.604736 188.079514,1867.403442 176.156052,1867.251465 
	C169.672241,1867.168945 163.185989,1867.067383 156.703171,1867.152344 
	C133.451263,1867.456787 110.200356,1867.837036 86.523880,1868.006592 
	C88.437263,1867.244141 90.768242,1866.193115 93.115593,1866.155273 
	C119.807533,1865.723877 146.501358,1865.311646 173.195999,1865.191772 
	C184.905960,1865.139160 196.619812,1865.742432 208.329224,1866.128662 
	C209.405563,1866.164185 210.462463,1866.788452 211.726898,1867.462402 
z"/>
<path fill="#A9F4A2" opacity="1.000000" stroke="none" 
	d="
M58.542175,1868.345337 
	C58.046696,1869.040527 57.276585,1869.792603 56.467411,1869.837280 
	C48.919239,1870.254150 41.364326,1870.549316 33.378563,1870.711792 
	C36.454140,1869.729126 39.927624,1868.499268 43.479382,1868.200928 
	C48.371735,1867.789795 53.323246,1868.082764 58.542175,1868.345337 
z"/>
<path fill="#A9F4A2" opacity="1.000000" stroke="none" 
	d="
M258.961121,1870.048584 
	C252.227707,1870.043579 245.348282,1869.720459 238.314896,1869.006836 
	C245.045654,1868.987671 251.930389,1869.359009 258.961121,1870.048584 
z"/>
<path fill="#A9F4A2" opacity="1.000000" stroke="none" 
	d="
M312.938232,1874.874390 
	C306.304474,1874.621216 299.466156,1874.095581 292.371887,1873.286133 
	C297.087524,1873.078003 302.065002,1873.036865 307.027771,1873.287842 
	C308.946991,1873.385010 310.832703,1874.144409 312.938232,1874.874390 
z"/>
<path fill="#A9F4A2" opacity="1.000000" stroke="none" 
	d="
M285.945129,1872.214600 
	C280.051727,1872.116333 274.054291,1871.665161 267.856476,1870.896729 
	C273.717773,1871.006958 279.779449,1871.434448 285.945129,1872.214600 
z"/>
<path fill="#A9F4A2" opacity="1.000000" stroke="none" 
	d="
M352.759155,1880.073975 
	C347.189026,1879.742798 341.390503,1879.163574 335.353119,1878.293457 
	C340.919769,1878.610352 346.725281,1879.218140 352.759155,1880.073975 
z"/>
<path fill="#A9F4A2" opacity="1.000000" stroke="none" 
	d="
M80.589417,1867.597900 
	C75.512794,1868.164673 70.133003,1868.473877 64.322105,1868.577148 
	C69.356079,1868.027466 74.821167,1867.683838 80.589417,1867.597900 
z"/>
<path fill="#A9F4A2" opacity="1.000000" stroke="none" 
	d="
M470.999573,1906.063721 
	C466.249878,1905.103882 461.385437,1903.836792 456.315796,1902.285889 
	C461.035370,1903.253418 465.960114,1904.504883 470.999573,1906.063721 
z"/>
<path fill="#A9F4A2" opacity="1.000000" stroke="none" 
	d="
M487.004761,1911.068848 
	C482.521393,1910.026978 477.928711,1908.683350 473.246338,1906.977661 
	C477.736206,1907.999512 482.315796,1909.383179 487.004761,1911.068848 
z"/>
<path fill="#A9F4A2" opacity="1.000000" stroke="none" 
	d="
M391.989014,1887.057251 
	C387.918488,1886.749512 383.726715,1886.131226 379.326782,1885.203369 
	C383.368347,1885.511475 387.618073,1886.129028 391.989014,1887.057251 
z"/>
<path fill="#A9F4A2" opacity="1.000000" stroke="none" 
	d="
M329.958801,1877.203613 
	C326.181824,1877.150635 322.309204,1876.757324 318.299622,1875.990479 
	C322.062836,1876.032227 325.963043,1876.447876 329.958801,1877.203613 
z"/>
<path fill="#A9F4A2" opacity="1.000000" stroke="none" 
	d="
M416.979034,1892.062012 
	C413.428802,1891.709839 409.746674,1891.050049 405.824036,1890.157471 
	C409.338043,1890.534546 413.092590,1891.144531 416.979034,1892.062012 
z"/>
<path fill="#A9F4A2" opacity="1.000000" stroke="none" 
	d="
M446.002380,1899.068359 
	C442.909760,1898.747681 439.704987,1898.124390 436.308777,1897.197266 
	C439.374969,1897.517578 442.632629,1898.141602 446.002380,1899.068359 
z"/>
<path fill="#A9F4A2" opacity="1.000000" stroke="none" 
	d="
M376.976013,1884.234863 
	C374.167053,1884.164185 371.281738,1883.760498 368.280090,1882.987061 
	C371.075684,1883.045532 373.987671,1883.473755 376.976013,1884.234863 
z"/>
<path fill="#A9F4A2" opacity="1.000000" stroke="none" 
	d="
M363.977905,1882.059326 
	C361.199707,1882.033081 358.290833,1881.698975 355.269806,1880.990234 
	C358.054169,1880.994141 360.950684,1881.372925 363.977905,1882.059326 
z"/>
<path fill="#A9F4A2" opacity="1.000000" stroke="none" 
	d="
M227.681671,1867.829590 
	C225.157486,1868.272583 222.398514,1868.407227 219.378296,1868.271973 
	C221.893661,1867.841919 224.670273,1867.681641 227.681671,1867.829590 
z"/>
<path fill="#A9F4A2" opacity="1.000000" stroke="none" 
	d="
M402.816101,1889.212402 
	C400.702240,1889.159180 398.504578,1888.743164 396.233765,1887.971924 
	C398.351196,1888.027588 400.541718,1888.438599 402.816101,1889.212402 
z"/>
<path fill="#A9F4A2" opacity="1.000000" stroke="none" 
	d="
M424.802521,1893.963745 
	C423.046783,1893.958618 421.170166,1893.629272 419.224670,1892.957520 
	C420.997742,1892.956665 422.839691,1893.298096 424.802521,1893.963745 
z"/>
<path fill="#A9F4A2" opacity="1.000000" stroke="none" 
	d="
M433.978394,1896.226929 
	C432.027313,1896.104614 430.001221,1895.641479 427.813629,1894.879761 
	C429.735870,1895.016113 431.819580,1895.451172 433.978394,1896.226929 
z"/>
<path fill="#A9F4A2" opacity="1.000000" stroke="none" 
	d="
M453.987122,1901.252930 
	C452.151184,1901.155762 450.250275,1900.744385 448.253998,1899.974365 
	C450.079773,1900.056641 452.000946,1900.497559 453.987122,1901.252930 
z"/>
<path fill="#A9F4A2" opacity="1.000000" stroke="none" 
	d="
M493.056763,1913.083618 
	C491.873932,1913.087646 490.625610,1912.800415 489.243042,1912.202148 
	C490.402954,1912.191528 491.697083,1912.491943 493.056763,1913.083618 
z"/>
<path fill="#A9F4A2" opacity="1.000000" stroke="none" 
	d="
M499.017914,1915.271362 
	C497.827087,1915.258057 496.598572,1914.948120 495.234802,1914.319458 
	C496.393097,1914.325439 497.686676,1914.650024 499.017914,1915.271362 
z"/>
</svg>